<svg width="22" height="22" viewBox="0 0 22 22" fill="none" xmlns="http://www.w3.org/2000/svg">
<path d="M14.5977 15.8286C15.286 14.6167 15.3689 12.9137 15.1522 11.8656C15.0271 11.2611 14.6155 10.2593 14.2568 9.67517C14.2231 9.62034 14.1725 9.54629 14.1217 9.47202C14.0809 9.41247 14.0401 9.35276 14.0078 9.30269C14.0207 9.41372 14.0362 9.5491 14.0362 9.69456C14.0362 9.92224 14.0285 10.1169 14.0078 10.3126C13.936 11.0035 13.7491 11.6526 13.4321 12.4334C13.1209 13.1999 12.6903 13.8022 12.3073 14.1919C11.2946 15.2222 10.1926 15.9445 8.20781 16.0439C7.64688 16.072 6.68127 15.9442 5.86059 15.6147C4.99391 15.2667 4.30451 14.7734 3.87522 14.3695C3.80985 14.3132 3.76207 14.2688 3.68587 14.1919C3.6602 14.166 3.63644 14.1425 3.61397 14.1203C3.56986 14.0767 3.53069 14.038 3.49167 13.9955C3.49685 13.9981 3.50017 14.0003 3.50294 14.0021C3.50435 14.003 3.50562 14.0039 3.50692 14.0046C3.51301 14.0081 3.51697 14.0109 3.52116 14.0138C3.52348 14.0154 3.52587 14.0171 3.52873 14.019C5.31303 15.1834 6.78228 15.3165 7.63379 15.3165C8.93774 15.3165 9.59943 15.0663 10.0587 14.8426C10.5181 14.619 11.3145 14.1176 11.8515 13.3956C12.1954 12.9333 12.3698 12.5151 12.5316 12.0863C12.4888 12.1211 12.4399 12.1589 12.4148 12.1763C12.388 12.195 12.3512 12.2215 12.3155 12.2472C12.285 12.2692 12.2553 12.2906 12.2333 12.306C11.1534 13.063 10.6772 13.1517 9.93823 13.2759C9.26498 13.3891 8.15157 13.3814 7.42909 13.2483C6.11539 13.0065 4.43908 12.3917 3.52873 10.9711C2.72062 9.71007 2.85604 8.63554 3.07952 7.21365C3.25491 6.09672 4.15109 4.75726 4.91552 3.93196C5.54565 3.2484 6.30231 2.73323 7.13779 2.33538C8.65816 1.61296 10.2514 1.29431 11.9346 1.46936C12.6086 1.53503 13.2729 1.67758 13.9145 1.89423C15.181 2.32956 16.3692 2.96614 17.4333 3.77948C19.2622 5.1725 20.5632 6.94637 21.2703 9.14285C21.5986 10.1736 21.7846 11.2445 21.823 12.3256C21.8261 12.3987 21.8319 12.473 21.8377 12.5473C21.8425 12.6093 21.8473 12.6712 21.8505 12.7322V12.7587C21.8538 12.7478 21.859 12.7077 21.8609 12.6965C21.8748 12.5629 21.8912 12.4291 21.9076 12.2952C21.9412 12.0211 21.9748 11.7468 21.9877 11.4733C22.033 10.5304 21.9531 9.58555 21.7502 8.66358C21.2643 6.46636 20.2202 4.57443 18.5833 3.03189C16.3821 0.958648 13.7554 -0.0454254 10.7287 0.00157614C9.11118 0.0379691 7.52179 0.432315 6.07476 1.15626C4.31517 2.03376 2.82521 3.37037 1.76231 5.02484C0.681148 6.69025 0.105785 8.52555 0.0121732 10.5081C-0.0246474 11.2813 0.022121 12.0562 0.151666 12.8193C0.33112 13.8822 0.644518 14.903 1.13182 15.8645C2.50085 18.5661 4.61212 20.4288 7.47598 21.4251C8.45541 21.7603 9.47857 21.9506 10.513 21.9899C12.317 22.067 14.1126 21.7029 15.7442 20.9292C16.7661 20.444 17.7012 19.8333 18.4797 19.0047C20.1077 17.2693 20.9217 15.1972 21.0035 12.829C21.0215 12.2373 20.9761 11.6453 20.8681 11.0633C20.6642 9.93893 20.2538 8.89896 19.6012 7.95856C18.9207 6.97856 18.0371 6.22097 17.0111 5.62365C15.8341 4.93713 14.5664 4.56333 13.2 4.54705C12.6094 4.54102 12.0203 4.60639 11.4454 4.74172C10.3156 5.00159 9.2607 5.51814 8.36252 6.25132C8.34745 6.26349 8.33371 6.27716 8.31994 6.29085C8.31443 6.29633 8.30892 6.30182 8.30332 6.30721C8.32377 6.31536 8.34644 6.31602 8.36733 6.30906C8.67181 6.20988 8.98835 6.15249 9.30826 6.13845C9.94286 6.11038 10.5782 6.17269 11.1953 6.32349C12.9965 6.77722 14.5508 8.02743 15.3802 9.30269C15.9324 10.1517 16.2631 11.3413 16.3486 12.1703C16.3967 12.6361 16.4188 13.3665 16.2463 14.1919C16.0738 15.0174 15.7754 15.8151 15.1658 16.6825C14.3411 17.856 13.5802 18.4371 12.3715 18.9734C11.9126 19.177 11.3197 19.2993 11.028 19.3595C10.9917 19.367 10.96 19.3735 10.9339 19.3791C10.9301 19.38 10.9256 19.3809 10.9205 19.382C10.8981 19.3869 10.8638 19.3943 10.8184 19.4033C11.2517 19.2371 11.8329 18.9404 12.6219 18.316C13.6883 17.4721 14.3132 16.4067 14.5977 15.8286Z" fill="#1EB66E"/>
</svg>
