<svg width="32" height="33" viewBox="0 0 32 33" fill="none" xmlns="http://www.w3.org/2000/svg">
<path d="M15.998 1.49707C13.7915 1.49707 11.6929 1.97603 9.80469 2.83302C9.54658 2.95075 9.43796 3.25925 9.56542 3.51267L10.4619 5.30272C10.5817 5.54098 10.8675 5.64325 11.1113 5.53514C12.6038 4.86873 14.2558 4.49804 15.998 4.49804C22.6314 4.49804 28.002 9.86373 28.002 16.4971C28.002 18.9865 27.1753 21.2519 25.8789 23.1699L24.3545 21.6455C24.0394 21.3253 23.4947 21.5508 23.498 22V27.4999C23.4991 27.7761 23.7239 27.9991 24 27.9981H29.5C29.9447 27.9979 30.1679 27.4609 29.8545 27.1455L28.042 25.333C29.8672 22.8484 30.998 19.8142 30.998 16.4971C30.998 8.21873 24.2764 1.49707 15.998 1.49707ZM2.44922 4.99995C2.0284 5.04171 1.8463 5.55464 2.14648 5.8525L3.95899 7.66504C2.13374 10.1497 0.998047 13.1838 0.998047 16.501C0.998047 24.7793 7.71971 31.501 15.998 31.501C18.2046 31.501 20.3042 31.022 22.1924 30.165C22.452 30.0488 22.5625 29.7398 22.4355 29.4853L21.5391 27.6953C21.4191 27.4549 21.1306 27.3522 20.8857 27.4629C19.3932 28.1293 17.7403 28.5 15.998 28.5C9.36471 28.5 3.99903 23.1343 3.99903 16.501C3.99903 14.0122 4.82236 11.7448 6.11815 9.82713L7.6455 11.3515C7.9609 11.665 8.49788 11.4417 8.49805 10.997V5.49805C8.49695 5.22343 8.2746 5.00106 8 4.99995H2.50098C2.48397 4.99906 2.46641 4.99906 2.44922 4.99995ZM16 7.99803C14.0975 7.99803 12.3454 8.63321 10.9277 9.69235L12.7148 10.5449C12.9176 10.6403 13.0322 10.8591 12.9951 11.0801L12.5898 13.4981H13.999C14.157 13.4971 14.3063 13.571 14.4014 13.6973L15.7529 15.498H17.502V13.4981C17.501 13.3654 17.5532 13.2379 17.6465 13.1436L19.4991 11.291L19.4858 8.75387C18.4207 8.27272 17.243 7.99803 16 7.99803ZM20.4873 9.29298L20.4986 11.4931C20.5005 11.6269 20.4489 11.7561 20.355 11.8516L18.5015 13.7041V15.9961C18.503 16.2741 18.2776 16.5001 17.9996 16.499H15.5015C15.3433 16.4995 15.1941 16.4255 15.0992 16.2988L13.7515 14.498H12.0025C11.6924 14.499 11.4559 14.2208 11.5074 13.915L11.9468 11.2871L10.0894 10.4004C8.49474 11.9462 7.49959 14.1069 7.49959 16.499C7.49959 17.675 7.7401 18.7951 8.1734 19.8144L9.29352 18.6357C9.39028 18.5341 9.52528 18.4777 9.6656 18.4804L10.1939 18.4917L10.5514 17.7759C10.6277 17.6213 10.7787 17.5168 10.9762 17.4996H13.5006C13.7144 17.4999 13.9043 17.636 13.9732 17.8384L14.4752 19.3413C14.5046 19.4305 14.5084 19.5264 14.4865 19.6177L14.0031 21.5855C13.9808 21.6736 13.9349 21.7541 13.8702 21.8179L13.2247 22.4673L13.5529 24.6372C14.3285 24.8708 15.1492 24.9996 16.0001 24.9996C17.9438 24.9996 19.731 24.337 21.1642 23.2359L18.3693 22.482C18.2527 22.4497 18.1516 22.3762 18.0851 22.275L17.0851 20.7769C16.9995 20.6486 16.9778 20.4878 17.0265 20.3414L17.5285 18.8394C17.5971 18.6366 17.7871 18.5 18.0011 18.4995H19.8498L21.2228 17.5845C21.3821 17.4526 21.5431 17.4785 21.6877 17.5367L24.2365 18.5631C24.4024 17.9011 24.5002 17.2125 24.5002 16.4996C24.5002 13.4596 22.8923 10.7957 20.4873 9.29298ZM11.3086 18.499L10.9473 19.2227C10.8609 19.3956 10.6825 19.5032 10.4893 19.499L9.86523 19.4839L8.65527 20.7583C9.53757 22.274 10.8723 23.4908 12.4766 24.2251L12.1943 22.3667C12.1717 22.2093 12.2253 22.0504 12.3389 21.939L13.0655 21.2075L13.4824 19.5171L13.1397 18.4985L11.3086 18.499ZM21.5586 18.5616L20.2773 19.4141C20.1955 19.4691 20.0995 19.4986 20.001 19.4991H18.3623L18.0518 20.4259L18.8125 21.5626L22.0674 22.4415C22.8778 21.6141 23.5151 20.6208 23.9355 19.5197L21.5586 18.5616Z" fill="#1EB66E"/>
</svg>
