<svg width="32" height="33" viewBox="0 0 32 33" fill="none" xmlns="http://www.w3.org/2000/svg">
<path d="M4.11034 11.3322C4.61311 11.3322 5.02049 10.9247 5.02049 10.4221V6.54144L10.8824 12.4022C11.0602 12.5798 11.2931 12.6687 11.526 12.6687C11.759 12.6687 11.992 12.5798 12.1696 12.4021C12.5251 12.0466 12.5251 11.4703 12.1695 11.115L6.30732 5.25413H10.1888C10.6914 5.25413 11.0989 4.84663 11.0989 4.34399C11.0989 3.84134 10.6916 3.43384 10.1888 3.43384H4.11034C3.60758 3.43384 3.2002 3.84134 3.2002 4.34399V10.4222C3.2002 10.9247 3.60758 11.3322 4.11034 11.3322Z" fill="#1EB66E"/>
<path d="M28.4233 21.6685C27.9206 21.6685 27.5132 22.076 27.5132 22.5786V26.4594L21.4708 20.417C21.1152 20.0615 20.539 20.0615 20.1836 20.417C19.8281 20.7724 19.8281 21.3487 20.1836 21.704L26.2259 27.7463H22.3454C21.8426 27.7463 21.4352 28.1538 21.4352 28.6565C21.4352 29.1591 21.8426 29.5666 22.3454 29.5666H28.4234C28.9262 29.5666 29.3336 29.1591 29.3336 28.6565V22.5786C29.3335 22.076 28.926 21.6685 28.4233 21.6685Z" fill="#1EB66E"/>
<path d="M11.0633 20.417L5.02147 26.4593V22.5786C5.02147 22.076 4.61408 21.6685 4.11132 21.6685C3.60855 21.6685 3.20117 22.076 3.20117 22.5786V28.6567C3.20117 29.1594 3.60855 29.5669 4.11132 29.5669H10.1892C10.6918 29.5669 11.0993 29.1594 11.0993 28.6567C11.0993 28.1541 10.6919 27.7466 10.1892 27.7466H6.30854L12.3505 21.7041C12.7059 21.3486 12.7059 20.7723 12.3503 20.4169C11.9951 20.0615 11.4188 20.0615 11.0633 20.417Z" fill="#1EB66E"/>
<path d="M28.4236 3.43359H22.3456C21.8428 3.43359 21.4354 3.8411 21.4354 4.34374C21.4354 4.84638 21.8428 5.25389 22.3456 5.25389H26.2263L20.3652 11.1154C20.0098 11.4708 20.0098 12.0471 20.3653 12.4025C20.543 12.5802 20.776 12.669 21.0089 12.669C21.2417 12.669 21.4747 12.5801 21.6525 12.4024L27.5136 6.54096V10.4218C27.5136 10.9245 27.921 11.332 28.4238 11.332C28.9265 11.332 29.3339 10.9245 29.3339 10.4218V4.34374C29.3338 3.84098 28.9263 3.43359 28.4236 3.43359Z" fill="#1EB66E"/>
</svg>
