<svg width="32" height="33" viewBox="0 0 32 33" fill="none" xmlns="http://www.w3.org/2000/svg">
<path d="M16.1906 30.1754C21.9562 30.1754 26.6472 25.4859 26.6472 19.7213C26.6472 14.1097 17.0423 3.24937 16.6333 2.78976C16.4079 2.53622 15.9729 2.53622 15.7468 2.78976C15.3385 3.24937 5.73324 14.11 5.72656 19.7213C5.72656 25.4859 10.4207 30.1754 16.1906 30.1754ZM11.1226 19.5275L17.5412 11.1003C17.6601 10.9445 17.869 10.8861 18.0515 10.9575C18.2347 11.0296 18.3476 11.2139 18.3289 11.4087L17.7747 17.1479H20.9005C21.0676 17.1479 21.2198 17.2422 21.294 17.3916C21.3682 17.5407 21.3517 17.7193 21.2515 17.8526L15.0333 26.077C14.9489 26.1881 14.8177 26.2514 14.6823 26.2514C14.6356 26.2514 14.5881 26.244 14.5424 26.2289C14.3638 26.1684 14.2428 26.001 14.2428 25.8118V20.2336H11.4721C11.3051 20.2336 11.1528 20.1387 11.0787 19.9892C11.0045 19.8398 11.0217 19.6601 11.1226 19.5275Z" fill="#1EB66E"/>
</svg>
